<svg width="80" height="80" viewBox="0 0 80 80" fill="none" xmlns="http://www.w3.org/2000/svg">
<path d="M40.1341 51.3898L17.2461 51.1012V25.9009H40.1341V51.3898Z" fill="#DB5300"/>
<mask id="mask0_0_70" style="mask-type:luminance" maskUnits="userSpaceOnUse" x="16" y="25" width="25" height="27">
<path d="M16.9434 25.7119H40.5014V51.654H16.9434V25.7119Z" fill="white"/>
</mask>
<g mask="url(#mask0_0_70)">
<path d="M40.1835 51.7213C40.1825 51.7213 40.1814 51.7213 40.1804 51.7213L17.1735 51.4354C17.0466 51.4334 16.9434 51.3302 16.9434 51.2022V26.1487C16.9434 26.0207 17.0476 25.9165 17.1766 25.9165H40.1835C40.3115 25.9165 40.4157 26.0207 40.4157 26.1487V51.4891C40.4157 51.551 40.3909 51.6109 40.3466 51.6542C40.3032 51.6966 40.2444 51.7213 40.1835 51.7213ZM17.4099 50.972L39.9513 51.2528V26.3809H17.4099V50.972Z" fill="#DB5300"/>
</g>
<path d="M40.1338 51.3898L63.0218 51.1012V25.9009H40.1338V51.3898Z" fill="#DB5300"/>
<mask id="mask1_0_70" style="mask-type:luminance" maskUnits="userSpaceOnUse" x="39" y="25" width="25" height="27">
<path d="M39.709 25.7119H63.3465V51.654H39.709V25.7119Z" fill="white"/>
</mask>
<g mask="url(#mask1_0_70)">
<path d="M40.1834 51.7213C40.1215 51.7213 40.0637 51.6966 40.0193 51.6542C39.9759 51.6109 39.9512 51.551 39.9512 51.4891V26.1487C39.9512 26.0207 40.0554 25.9165 40.1834 25.9165H63.1903C63.3182 25.9165 63.4225 26.0207 63.4225 26.1487V51.2022C63.4225 51.3302 63.3203 51.4344 63.1934 51.4344L40.1865 51.7213C40.1855 51.7213 40.1844 51.7213 40.1834 51.7213ZM40.4166 26.3809V51.2528L62.9581 50.972V26.3809H40.4166Z" fill="#DB5300"/>
</g>
<path d="M40.1335 51.3898C40.1335 51.3898 34.5683 49.5549 29.7298 49.5549C24.8904 49.5549 19.3262 49.5549 19.3262 49.5549V24.3403C19.3262 24.3403 22.3215 24.3403 28.9979 24.3403C35.6733 24.3403 40.1335 26.1753 40.1335 26.1753V51.3898Z" fill="white"/>
<mask id="mask2_0_70" style="mask-type:luminance" maskUnits="userSpaceOnUse" x="18" y="23" width="23" height="29">
<path d="M18.8359 23.8628H40.5011V51.6543H18.8359V23.8628Z" fill="white"/>
</mask>
<g mask="url(#mask2_0_70)">
<path d="M40.1832 51.7212C40.1584 51.7212 40.1336 51.7171 40.1109 51.7088C40.0552 51.6902 34.4851 49.8748 29.7087 49.8748H19.2332C19.1052 49.8748 19.001 49.7706 19.001 49.6426V24.2713C19.001 24.1433 19.1052 24.0391 19.2332 24.0391H28.9708C35.6606 24.0391 40.2255 25.8844 40.2709 25.903C40.3586 25.9391 40.4154 26.0237 40.4154 26.1187V51.489C40.4154 51.5633 40.3793 51.6335 40.3184 51.6779C40.2791 51.7068 40.2317 51.7212 40.1832 51.7212ZM19.4654 49.4094H29.7077C33.9133 49.4094 38.7083 50.7903 39.9499 51.1711V26.2776C39.1304 25.9711 34.9031 24.5045 28.9708 24.5045H19.4654V49.4094Z" fill="#DB5300"/>
</g>
<path d="M40.1338 51.3898C40.1338 51.3898 45.698 49.5549 50.5374 49.5549C55.3759 49.5549 60.9411 49.5549 60.9411 49.5549V24.3403C60.9411 24.3403 57.9458 24.3403 51.2694 24.3403C44.5929 24.3403 40.1338 26.1753 40.1338 26.1753V51.3898Z" fill="white"/>
<mask id="mask3_0_70" style="mask-type:luminance" maskUnits="userSpaceOnUse" x="39" y="23" width="23" height="29">
<path d="M39.709 23.8628H61.3742V51.6543H39.709V23.8628Z" fill="white"/>
</mask>
<g mask="url(#mask3_0_70)">
<path d="M40.1834 51.7213C40.1349 51.7213 40.0875 51.7068 40.0462 51.6769C39.9863 51.6325 39.9502 51.5623 39.9502 51.488V26.1177C39.9502 26.0238 40.007 25.9381 40.0937 25.902C40.1391 25.8834 44.7039 24.0381 51.3948 24.0381H61.1324C61.2604 24.0381 61.3646 24.1423 61.3646 24.2703V49.6406C61.3646 49.7686 61.2604 49.8728 61.1324 49.8728H50.6579C45.8784 49.8728 40.3114 51.6893 40.2557 51.7068C40.233 51.7171 40.2082 51.7213 40.1834 51.7213ZM40.4167 26.2777V51.1722C41.6572 50.7914 46.4533 49.4105 50.6589 49.4105H60.9012V24.5046H51.3958C45.4625 24.5046 41.2351 25.9712 40.4167 26.2777Z" fill="#DB5300"/>
</g>
<path d="M40.1338 51.39C40.1338 51.39 36.5824 47.6492 31.7645 47.6492C26.9466 47.6492 21.4072 47.6492 21.4072 47.6492V22.2598C21.4072 22.2598 24.3892 22.2598 31.0359 22.2598C37.6825 22.2598 40.1338 26.0006 40.1338 26.0006V51.39Z" fill="white"/>
<mask id="mask4_0_70" style="mask-type:luminance" maskUnits="userSpaceOnUse" x="20" y="22" width="21" height="30">
<path d="M20.9502 22.144H40.5017V51.654H20.9502V22.144Z" fill="white"/>
</mask>
<g mask="url(#mask4_0_70)">
<path d="M40.1834 51.7209C40.1204 51.7209 40.0606 51.6961 40.0162 51.6497C39.9801 51.6125 36.4328 47.9828 31.7204 47.9828H21.2449C21.1169 47.9828 21.0127 47.8785 21.0127 47.7505V22.3792C21.0127 22.2512 21.1169 22.147 21.2449 22.147H30.9825C37.7518 22.147 40.2732 25.8325 40.3764 25.9894C40.4011 26.0276 40.4156 26.0719 40.4156 26.1173V51.4877C40.4156 51.5826 40.3578 51.6683 40.2701 51.7034C40.2422 51.7157 40.2133 51.7209 40.1834 51.7209ZM21.4771 47.5173H31.7194C35.7496 47.5173 38.8747 49.9746 39.9501 50.9448V26.1927C39.6116 25.7406 37.0459 22.6124 30.9825 22.6124H21.4771V47.5173Z" fill="#DB5300"/>
</g>
<path d="M39.6133 51.39C39.6133 51.39 43.2644 47.6492 48.2151 47.6492C53.1668 47.6492 58.86 47.6492 58.86 47.6492V22.2598C58.86 22.2598 55.7952 22.2598 48.965 22.2598C42.1337 22.2598 39.6133 26.0006 39.6133 26.0006V51.39Z" fill="white"/>
<mask id="mask5_0_70" style="mask-type:luminance" maskUnits="userSpaceOnUse" x="39" y="22" width="20" height="30">
<path d="M39.1807 22.144H58.9964V51.654H39.1807V22.144Z" fill="white"/>
</mask>
<g mask="url(#mask5_0_70)">
<path d="M39.6717 51.7209C39.6428 51.7209 39.6139 51.7157 39.586 51.7044C39.4972 51.6683 39.4395 51.5836 39.4395 51.4887V26.1173C39.4395 26.0719 39.4529 26.0276 39.4787 25.9894C39.5819 25.8325 42.1043 22.147 48.8736 22.147H58.6101C58.7391 22.147 58.8424 22.2512 58.8424 22.3792V47.7495C58.8424 47.8775 58.7391 47.9817 58.6101 47.9817H48.1346C43.416 47.9817 39.875 51.6125 39.8399 51.6487C39.7945 51.6961 39.7346 51.7209 39.6717 51.7209ZM39.9049 26.1927V50.9448C40.9814 49.9746 44.1044 47.5173 48.1346 47.5173H58.3769V22.6124H48.8736C42.8081 22.6124 40.2424 25.7406 39.9049 26.1927Z" fill="#DB5300"/>
</g>
<mask id="mask6_0_70" style="mask-type:luminance" maskUnits="userSpaceOnUse" x="33" y="7" width="23" height="50">
<path d="M33.6318 7.21729H55.5612V56.0961H33.6318V7.21729Z" fill="white"/>
</mask>
<g mask="url(#mask6_0_70)">
<mask id="mask7_0_70" style="mask-type:luminance" maskUnits="userSpaceOnUse" x="23" y="7" width="50" height="50">
<path d="M23.624 22.9106L55.4479 7.18701L72.0239 40.7365L40.2001 56.46L23.624 22.9106Z" fill="white"/>
</mask>
<g mask="url(#mask7_0_70)">
<mask id="mask8_0_70" style="mask-type:luminance" maskUnits="userSpaceOnUse" x="23" y="7" width="50" height="50">
<path d="M23.624 22.9106L55.4479 7.18701L72.0239 40.7365L40.2001 56.46L23.624 22.9106Z" fill="white"/>
</mask>
<g mask="url(#mask8_0_70)">
<path d="M55.4969 7.40991L55.5 7.41714C55.5041 7.4254 55.5072 7.43262 55.5114 7.43984C55.5145 7.44707 55.5145 7.44707 55.5186 7.45429C55.5217 7.46255 55.5258 7.46977 55.5258 7.46977C55.53 7.477 55.53 7.477 55.5258 7.48835C55.5289 7.49558 55.533 7.5028 55.5258 7.5059C55.5289 7.51415 55.5217 7.51725 55.5258 7.52447V7.56163C55.5217 7.57298 55.5217 7.57298 55.5176 7.58433L55.5103 7.60601L55.5062 7.61736C55.4959 7.63181 55.3834 7.83409 55.1863 8.18087C54.8529 9.16546 54.9334 10.9313 55.017 12.6497C55.1006 14.46 55.1956 16.3291 54.8168 17.4839C54.341 18.9629 53.7682 19.8536 53.3853 20.3283C54.2832 20.1333 54.8601 20.1622 54.9076 20.1663C55.0222 20.1735 55.1068 20.2705 55.0985 20.3851C55.0944 20.4511 55.0542 20.5172 54.9984 20.5543C54.9685 20.5688 52.0797 22.2356 50.7618 25.982C50.3417 27.1658 50.0476 28.6385 49.7638 30.0597C49.3055 32.3395 48.8287 34.6937 47.8359 36.1706C46.906 37.5515 45.6778 38.7022 44.7954 39.4329C45.2681 39.3091 45.7604 39.241 46.2517 39.2286C46.3621 39.2296 46.4612 39.3184 46.4612 39.4299C46.457 39.4959 46.4312 39.5547 46.3786 39.5991C45.2258 40.4537 45.0648 41.7128 44.8955 43.0493C44.7541 44.1609 44.6045 45.3126 43.913 46.354C42.689 48.2024 40.5949 49.6515 40.2161 49.9126C40.2161 50.0787 40.2223 50.2408 40.2254 50.3966C40.3162 53.917 40.9427 55.7634 40.953 55.785C40.9902 55.8779 40.9489 55.9811 40.8632 56.0327L40.8343 56.0472C40.7445 56.0905 40.6413 56.0678 40.5753 55.9904C40.535 55.946 39.6433 54.8293 39.1242 52.083C39.0272 51.5505 38.9302 50.9261 38.8744 50.216C38.4915 50.0003 36.8412 49.0095 36.3603 47.5894C35.9083 46.2456 35.2477 46.1579 35.2477 46.1579C35.1445 46.1538 35.064 46.065 35.0568 45.9577C35.0496 45.8503 35.1352 45.7626 35.2353 45.741C35.5161 45.7121 35.8071 45.7244 36.0847 45.7812C35.5924 45.2136 34.9237 44.3838 34.5356 43.7088C33.3818 41.6911 33.7574 40.3443 35.0114 36.7485C35.7648 34.6173 34.6636 32.3519 34.6522 32.3292C34.6006 32.226 34.6419 32.1042 34.7461 32.0526C34.7978 32.0268 34.8607 32.0237 34.9154 32.0423C35.3293 32.2064 35.7122 32.4417 36.0424 32.7389C35.9155 32.4242 35.8205 32.1022 35.7669 31.7698C35.5367 30.3724 36.0022 28.9079 37.1426 27.4135C40.9117 22.4926 41.1491 20.7907 41.1532 20.7804C41.1605 20.703 41.2162 20.6287 41.2977 20.607C41.3751 20.5781 41.4525 20.6039 41.5114 20.6668C41.5516 20.7122 41.8716 21.0972 41.9221 22.1685C42.1192 21.1509 42.6126 19.8567 43.5848 18.2425C46.8492 12.8613 55.0758 7.43365 55.1976 7.34593L55.2048 7.34283C55.2121 7.3387 55.2276 7.33148 55.2348 7.32735L55.2492 7.32012L55.2647 7.3129C55.2719 7.3098 55.2833 7.3129 55.2833 7.3129H55.338L55.3607 7.32116L55.371 7.32425C55.3824 7.32838 55.3865 7.33561 55.3937 7.33251L55.4051 7.33561L55.4195 7.34696L55.434 7.35831C55.4381 7.36554 55.4381 7.36554 55.4412 7.37276C55.4453 7.37998 55.4484 7.38824 55.4598 7.39134C55.467 7.38824 55.467 7.38824 55.4711 7.39547C55.5 7.39959 55.4969 7.40991 55.4969 7.40991Z" fill="white"/>
<path d="M55.4965 7.40949C55.4924 7.40227 55.4893 7.39504 55.478 7.39091C55.4666 7.38782 55.4738 7.38369 55.4707 7.37647L55.4563 7.36511C55.4522 7.35789 55.4408 7.35376 55.4408 7.35376L55.4305 7.35066C55.4191 7.34654 55.415 7.33931 55.4078 7.34241L55.3964 7.33931L55.3748 7.33209L55.3562 7.33105H55.319C55.3118 7.33518 55.3004 7.33105 55.3004 7.33105L55.2715 7.3455C55.2633 7.34963 55.2488 7.35686 55.2416 7.36098L55.2344 7.36408C55.1085 7.44458 46.8788 12.8836 43.6133 18.2648C42.638 19.8707 42.1447 21.1649 41.9506 22.1908C41.897 21.1123 41.5812 20.7335 41.5409 20.6891C41.4852 20.6334 41.4078 20.6076 41.3273 20.6293C41.2457 20.6509 41.1859 20.717 41.1704 20.7985C41.1704 20.8171 40.9299 22.5107 37.1608 27.4316C35.9977 28.9188 35.5332 30.3823 35.7623 31.7797C35.816 32.1131 35.911 32.4341 36.0389 32.7488C35.7076 32.4516 35.332 32.2142 34.9119 32.0532C34.8087 32.0119 34.6859 32.0636 34.6456 32.1668C34.6271 32.2215 34.6302 32.2844 34.656 32.336C34.6663 32.3587 35.7603 34.6282 35.0182 36.7636C33.7643 40.3583 33.3886 41.7051 34.5424 43.7239C34.9305 44.3978 35.5993 45.2286 36.0916 45.7963C35.815 45.7395 35.5229 45.7271 35.2422 45.755C35.1379 45.7694 35.0564 45.8644 35.0636 45.9717C35.0709 46.079 35.1472 46.1606 35.2546 46.1719C35.2618 46.1688 35.9151 46.2607 36.3671 47.6034C36.8481 49.0246 38.4911 50.0185 38.8813 50.2311C38.9483 50.9442 39.034 51.5645 39.131 52.097C39.6429 54.8289 40.546 55.9487 40.579 55.9972C40.6409 56.0674 40.7441 56.0901 40.8257 56.0499L40.8412 56.0426C40.9258 55.9921 40.9671 55.8889 40.9309 55.796C40.9237 55.7815 40.2931 53.9279 40.2023 50.4065C40.2002 50.2517 40.193 50.0886 40.1941 49.9225C40.5831 49.6665 42.67 48.2206 43.8899 46.3649C44.5824 45.3225 44.731 44.1708 44.8735 43.0602C45.0427 41.7237 45.2068 40.4532 46.3565 39.61C46.4525 39.544 46.4721 39.4139 46.3978 39.3221C46.3617 39.2664 46.2987 39.2323 46.2286 39.2395C45.7373 39.2519 45.2491 39.3273 44.7723 39.4428C45.6547 38.7121 46.8829 37.5624 47.8128 36.1815C48.8067 34.7046 49.2825 32.3505 49.7407 30.0696C50.0317 28.6453 50.3269 27.1726 50.7387 25.9929C52.0567 22.2465 54.9495 20.5869 54.9795 20.5725C55.0796 20.5137 55.1095 20.3878 55.062 20.2918C55.0331 20.2329 54.9661 20.1917 54.8928 20.1917C54.8443 20.1875 54.2797 20.1628 53.3694 20.3537C53.7523 19.8789 54.3262 18.9883 54.802 17.5093C55.1807 16.3544 55.0858 14.4854 55.0022 12.6751C54.9175 10.9567 54.834 9.18362 55.1714 8.20625C55.3644 7.85225 55.48 7.65719 55.4914 7.64274L55.4955 7.63139L55.5027 7.60971C55.5069 7.59836 55.5069 7.59836 55.51 7.58701V7.54985C55.5069 7.54263 55.5141 7.53953 55.51 7.53128C55.5069 7.52405 55.5141 7.52096 55.511 7.51373C55.5069 7.50547 55.5141 7.50238 55.511 7.49515C55.5069 7.4869 55.5038 7.47967 55.5038 7.47967C55.4996 7.47245 55.4996 7.47245 55.4955 7.46522C55.4924 7.458 55.4883 7.45077 55.4852 7.44252C55.4965 7.42807 55.4996 7.41672 55.4965 7.40949ZM54.5997 12.6803C54.6905 14.4503 54.7782 16.2863 54.4253 17.3628C53.6904 19.6612 52.712 20.4579 52.6976 20.4652C52.6707 20.4868 52.6522 20.5054 52.6377 20.5312C51.8946 20.7603 51.1794 21.0854 50.5013 21.4848C50.4022 21.5437 50.3713 21.6696 50.4301 21.7697C50.4889 21.8698 50.6149 21.8997 50.7139 21.8409C52.1444 21.006 53.3942 20.7201 54.1476 20.6231C52.4014 21.9565 51.0855 23.7668 50.3589 25.8391C49.9327 27.0456 49.6375 28.5359 49.3423 29.9715C48.8923 32.2122 48.4227 34.5261 47.4784 35.9317C45.9272 38.2374 43.4399 39.9351 43.4213 39.9537L43.4069 39.9795C43.185 40.1075 42.9775 40.2468 42.7845 40.4161C42.703 40.4935 42.6948 40.6266 42.7722 40.7082C42.8485 40.7897 42.9631 40.798 43.0488 40.7278C43.8496 40.0373 44.9632 39.7917 45.6351 39.6988C44.7775 40.6101 44.6247 41.7733 44.4668 43.0024C44.3296 44.0655 44.1913 45.1657 43.5472 46.1379C42.5358 47.6695 40.8525 48.943 40.193 49.4168C40.2085 46.111 40.7049 41.0931 42.7381 34.5983C45.3596 26.2365 52.0783 13.7691 54.5605 9.30024C54.4851 10.2673 54.546 11.4542 54.5997 12.6803ZM48.7272 17.9861C45.6196 23.5562 41.5925 31.627 40.0165 38.3932C38.8472 43.3936 38.6635 47.1049 38.8358 49.7099C38.2754 49.36 37.1164 48.523 36.7552 47.4579C36.5519 46.8583 36.3021 46.465 36.0668 46.2132C36.4394 46.2958 36.7893 46.5012 37.0431 46.7901C37.1133 46.8758 37.2465 46.8841 37.3311 46.8139C37.4168 46.7437 37.425 46.6116 37.3548 46.5259C37.2485 46.4031 37.1267 46.2886 36.9977 46.1957C36.9833 46.1843 35.5239 44.6114 34.9057 43.5257C33.8427 41.6556 34.1771 40.4491 35.4135 36.9091C36.0049 35.2165 35.5477 33.5074 35.2484 32.6787C35.7386 32.9615 35.9842 33.2731 36.2639 33.6148C36.5828 34.0183 36.9461 34.4745 37.746 34.8997L37.7718 34.9141C37.7862 34.9255 37.8089 34.9327 37.8306 34.941C37.9668 35.0111 38.1113 35.0782 38.2734 35.1463C38.3766 35.1866 38.5025 35.1432 38.5438 35.04C38.584 34.9368 38.5407 34.8109 38.4375 34.7696C38.2641 34.6995 38.1165 34.6241 37.9772 34.5457C37.7491 34.3826 36.4569 33.3712 36.1876 31.7085C35.9801 30.4288 36.4146 29.0716 37.4849 27.6773C40.1652 24.1693 41.0971 22.2713 41.4119 21.4167C41.4914 21.7088 41.5523 22.1485 41.5234 22.7987C41.4738 23.8173 41.9465 24.643 42.3139 25.125C42.4316 25.3066 42.5781 25.4738 42.7474 25.6111C42.8434 25.675 42.9693 25.6492 43.0353 25.5615C43.0952 25.4759 43.0849 25.3613 43.0033 25.2911C42.8785 25.1683 42.7577 25.0352 42.6473 24.8865C42.4533 24.5687 42.3294 24.224 42.2757 23.8545C42.1251 22.8967 42.2922 21.1845 43.9415 18.4619C46.5475 14.1902 52.3704 9.84724 54.5718 8.29914C53.5232 9.88646 51.2155 13.5142 48.7272 17.9861Z" fill="#DB5300"/>
<path d="M55.4965 7.40949C55.4924 7.40227 55.4893 7.39504 55.478 7.39091C55.4666 7.38782 55.4738 7.38369 55.4707 7.37647L55.4563 7.36511C55.4522 7.35789 55.4408 7.35376 55.4408 7.35376L55.4305 7.35066C55.4191 7.34654 55.415 7.33931 55.4078 7.34241L55.3964 7.33931L55.3748 7.33209L55.3562 7.33105H55.319C55.3118 7.33518 55.3004 7.33105 55.3004 7.33105L55.2715 7.3455C55.2633 7.34963 55.2488 7.35686 55.2416 7.36098L55.2344 7.36408C55.1085 7.44458 46.8788 12.8836 43.6133 18.2648C42.638 19.8707 42.1447 21.1649 41.9506 22.1908C41.897 21.1123 41.5812 20.7335 41.5409 20.6891C41.4852 20.6334 41.4078 20.6076 41.3273 20.6293C41.2457 20.6509 41.1859 20.717 41.1704 20.7985C41.1704 20.8171 40.9299 22.5107 37.1608 27.4316C35.9977 28.9188 35.5332 30.3823 35.7623 31.7797C35.816 32.1131 35.911 32.4341 36.0389 32.7488C35.7076 32.4516 35.332 32.2142 34.9119 32.0532C34.8087 32.0119 34.6859 32.0636 34.6456 32.1668C34.6271 32.2215 34.6302 32.2844 34.656 32.336C34.6663 32.3587 35.7603 34.6282 35.0182 36.7636C33.7643 40.3583 33.3886 41.7051 34.5424 43.7239C34.9305 44.3978 35.5993 45.2286 36.0916 45.7963C35.815 45.7395 35.5229 45.7271 35.2422 45.755C35.1379 45.7694 35.0564 45.8644 35.0636 45.9717C35.0709 46.079 35.1472 46.1606 35.2546 46.1719C35.2618 46.1688 35.9151 46.2607 36.3671 47.6034C36.8481 49.0246 38.4911 50.0185 38.8813 50.2311C38.9483 50.9442 39.034 51.5645 39.131 52.097C39.6429 54.8289 40.546 55.9487 40.579 55.9972C40.6409 56.0674 40.7441 56.0901 40.8257 56.0499L40.8412 56.0426C40.9258 55.9921 40.9671 55.8889 40.9309 55.796C40.9237 55.7815 40.2931 53.9279 40.2023 50.4065C40.2002 50.2517 40.193 50.0886 40.1941 49.9225C40.5831 49.6665 42.67 48.2206 43.8899 46.3649C44.5824 45.3225 44.731 44.1708 44.8735 43.0602C45.0427 41.7237 45.2068 40.4532 46.3565 39.61C46.4525 39.544 46.4721 39.4139 46.3978 39.3221C46.3617 39.2664 46.2987 39.2323 46.2286 39.2395C45.7373 39.2519 45.2491 39.3273 44.7723 39.4428C45.6547 38.7121 46.8829 37.5624 47.8128 36.1815C48.8067 34.7046 49.2825 32.3505 49.7407 30.0696C50.0317 28.6453 50.3269 27.1726 50.7387 25.9929C52.0567 22.2465 54.9495 20.5869 54.9795 20.5725C55.0796 20.5137 55.1095 20.3878 55.062 20.2918C55.0331 20.2329 54.9661 20.1917 54.8928 20.1917C54.8443 20.1875 54.2797 20.1628 53.3694 20.3537C53.7523 19.8789 54.3262 18.9883 54.802 17.5093C55.1807 16.3544 55.0858 14.4854 55.0022 12.6751C54.9175 10.9567 54.834 9.18362 55.1714 8.20625C55.3644 7.85225 55.48 7.65719 55.4914 7.64274L55.4955 7.63139L55.5027 7.60971C55.5069 7.59836 55.5069 7.59836 55.51 7.58701V7.54985C55.5069 7.54263 55.5141 7.53953 55.51 7.53128C55.5069 7.52405 55.5141 7.52096 55.511 7.51373C55.5069 7.50547 55.5141 7.50238 55.511 7.49515C55.5069 7.4869 55.5038 7.47967 55.5038 7.47967C55.4996 7.47245 55.4996 7.47245 55.4955 7.46522C55.4924 7.458 55.4883 7.45077 55.4852 7.44252C55.4965 7.42807 55.4996 7.41672 55.4965 7.40949ZM39.7967 50.4416C39.8235 51.7276 39.9464 53.0022 40.1548 54.2634C39.8772 53.5151 39.6708 52.7421 39.5263 51.966C39.0691 49.5117 38.8575 45.1667 40.4149 38.4913C41.9868 31.7725 45.9994 23.7471 49.0884 18.1946C50.0751 16.4267 51.0287 14.795 51.8884 13.3656C48.8098 19.1617 44.3646 28.0271 42.3469 34.4786C40.0857 41.7217 39.7121 47.1576 39.7967 50.4416ZM54.5997 12.6803C54.6833 14.4534 54.7782 16.2863 54.418 17.3669C53.6832 19.6643 52.7048 20.461 52.6893 20.4693C52.6635 20.491 52.6449 20.5095 52.6305 20.5353C51.8864 20.7645 51.1722 21.0896 50.4941 21.489C50.394 21.5478 50.3641 21.6727 50.4229 21.7728C50.4817 21.8729 50.6066 21.9028 50.7067 21.845C52.1372 21.0091 53.387 20.7232 54.1404 20.6272C52.3941 21.9596 51.0783 23.7709 50.3517 25.8433C49.9254 27.0487 49.6303 28.5401 49.3351 29.9757C48.8851 32.2153 48.4155 34.5292 47.4712 35.9359C45.92 38.2405 43.4327 39.9393 43.4141 39.9578L43.4069 39.9795C43.185 40.1075 42.9775 40.2468 42.7845 40.4161C42.703 40.4935 42.6948 40.6266 42.7722 40.7082C42.8485 40.7897 42.9631 40.798 43.0488 40.7278C43.8496 40.0373 44.9632 39.7917 45.6351 39.6988C44.7775 40.6101 44.6247 41.7733 44.4668 43.0024C44.3296 44.0655 44.1913 45.1657 43.5472 46.1379C42.5358 47.6695 40.8525 48.943 40.193 49.4168C40.2085 46.111 40.7049 41.0931 42.7381 34.5983C45.3596 26.2365 52.0783 13.7691 54.5605 9.30024C54.4851 10.2673 54.546 11.4542 54.5997 12.6803ZM48.7344 17.983C45.6269 23.5531 41.5997 31.6229 40.0165 38.3932C38.8472 43.3936 38.6635 47.1049 38.8358 49.7099C38.2754 49.36 37.1164 48.523 36.7552 47.4579C36.5519 46.8583 36.3021 46.465 36.0668 46.2132C36.4394 46.2958 36.7893 46.5012 37.0431 46.7901C37.1133 46.8758 37.2465 46.8841 37.3311 46.8139C37.4168 46.7437 37.425 46.6116 37.3548 46.5259C37.2485 46.4031 37.1267 46.2886 36.9977 46.1957C36.9833 46.1843 35.5239 44.6114 34.9057 43.5257C33.8427 41.6556 34.1771 40.4491 35.4135 36.9091C36.0049 35.2165 35.5477 33.5074 35.2484 32.6787C35.7386 32.9615 35.9842 33.2731 36.2639 33.6148C36.5828 34.0183 36.9461 34.4745 37.746 34.8997L37.7718 34.9141C37.7862 34.9255 37.8089 34.9327 37.8306 34.941C37.9668 35.0111 38.1113 35.0782 38.2734 35.1463C38.3766 35.1866 38.5025 35.1432 38.5438 35.04C38.584 34.9368 38.5407 34.8109 38.4375 34.7696C38.2641 34.6995 38.1165 34.6241 37.9772 34.5457C37.7491 34.3826 36.4569 33.3712 36.1876 31.7085C35.9801 30.4288 36.4146 29.0716 37.4849 27.6773C40.1652 24.1693 41.0971 22.2713 41.4119 21.4167C41.4914 21.7088 41.5523 22.1485 41.5234 22.7987C41.4738 23.8173 41.9465 24.643 42.3139 25.125C42.4316 25.3066 42.5781 25.4738 42.7474 25.6111C42.8434 25.675 42.9693 25.6492 43.0353 25.5615C43.0952 25.4759 43.0849 25.3613 43.0033 25.2911C42.8785 25.1683 42.7577 25.0352 42.6473 24.8865C42.4533 24.5687 42.3294 24.224 42.2757 23.8545C42.1251 22.8967 42.2922 21.1845 43.9415 18.4619C46.5475 14.1902 52.3704 9.84724 54.5718 8.29914C53.5232 9.88646 51.2155 13.5142 48.7344 17.983Z" fill="#DB5300"/>
</g>
</g>
</g>
<mask id="mask9_0_70" style="mask-type:luminance" maskUnits="userSpaceOnUse" x="55" y="0" width="10" height="9">
<path d="M55.5625 0H64.5436V8.98106H55.5625V0Z" fill="white"/>
</mask>
<g mask="url(#mask9_0_70)">
<path d="M60.0334 2.73292C60.0861 2.94243 60.1655 3.14162 60.2729 3.33049C60.3792 3.51832 60.5092 3.68965 60.662 3.84239C60.8147 3.99514 60.986 4.12518 61.1739 4.23148C61.3627 4.33882 61.5609 4.41829 61.7714 4.47092C61.5609 4.52356 61.3627 4.60303 61.1739 4.70933C60.986 4.81666 60.8147 4.94567 60.662 5.09945C60.5092 5.2522 60.3792 5.42249 60.2729 5.61136C60.1655 5.79919 60.0861 5.99838 60.0334 6.20892C59.9808 5.99838 59.9013 5.79919 59.795 5.61136C59.6877 5.42249 59.5576 5.2522 59.4049 5.09945C59.2521 4.94567 59.0819 4.81666 58.893 4.70933C58.7051 4.60303 58.506 4.52356 58.2954 4.47092C58.506 4.41829 58.7051 4.33882 58.893 4.23148C59.0819 4.12518 59.2521 3.99514 59.4049 3.84239C59.5576 3.68965 59.6877 3.51832 59.795 3.33049C59.9013 3.14162 59.9808 2.94243 60.0334 2.73292ZM60.0334 0C60.0334 1.0073 59.9911 1.78754 59.924 2.39234C59.9106 2.51722 59.8869 2.64003 59.8518 2.76078C59.8177 2.88257 59.7733 2.99919 59.7186 3.11272C59.665 3.22625 59.601 3.33358 59.5287 3.43679C59.4555 3.53896 59.375 3.63495 59.2862 3.7237C59.1974 3.81246 59.1015 3.89296 58.9993 3.96624C58.8961 4.03848 58.7887 4.10247 58.6752 4.15614C58.5617 4.21084 58.4451 4.25522 58.3243 4.28928C58.2025 4.32437 58.0797 4.3481 57.9548 4.36152C57.3511 4.42861 56.5698 4.47092 55.5625 4.47092C56.5698 4.47092 57.3511 4.51427 57.9548 4.58032C58.0797 4.59374 58.2025 4.61748 58.3243 4.65257C58.4451 4.68662 58.5617 4.731 58.6752 4.7857C58.7887 4.83937 58.8961 4.90336 58.9993 4.9756C59.1015 5.04888 59.1974 5.12938 59.2862 5.21814C59.375 5.3069 59.4555 5.40288 59.5287 5.50505C59.601 5.60826 59.665 5.7156 59.7186 5.82912C59.7733 5.94265 59.8177 6.05928 59.8518 6.18106C59.8869 6.30181 59.9106 6.42463 59.924 6.54951C59.9911 7.1543 60.0334 7.93454 60.0334 8.94184C60.0334 7.93454 60.0768 7.1543 60.1428 6.54951C60.1562 6.42463 60.18 6.30181 60.2151 6.18106C60.2491 6.05928 60.2935 5.94265 60.3482 5.82912C60.4019 5.7156 60.4659 5.60826 60.5381 5.50505C60.6114 5.40288 60.6919 5.3069 60.7806 5.21814C60.8694 5.12938 60.9654 5.04888 61.0676 4.9756C61.1708 4.90336 61.2781 4.83937 61.3916 4.7857C61.5052 4.731 61.6228 4.68662 61.7436 4.65257C61.8643 4.61748 61.9871 4.59374 62.112 4.58032C62.7168 4.51427 63.497 4.47092 64.5043 4.47092C63.497 4.47092 62.7168 4.42861 62.112 4.36152C61.9871 4.3481 61.8643 4.32437 61.7436 4.28928C61.6228 4.25522 61.5052 4.21084 61.3916 4.15614C61.2781 4.10247 61.1708 4.03848 61.0676 3.96624C60.9654 3.89296 60.8694 3.81246 60.7806 3.7237C60.6919 3.63495 60.6114 3.53896 60.5381 3.43679C60.4659 3.33358 60.4019 3.22625 60.3482 3.11272C60.2935 2.99919 60.2491 2.88257 60.2151 2.76078C60.18 2.64003 60.1562 2.51722 60.1428 2.39234C60.0768 1.78754 60.0334 1.0073 60.0334 0Z" fill="#DB5300"/>
</g>
<mask id="mask10_0_70" style="mask-type:luminance" maskUnits="userSpaceOnUse" x="60" y="5" width="8" height="8">
<path d="M60.0342 5.7373H67.0915V12.7657H60.0342V5.7373Z" fill="white"/>
</mask>
<g mask="url(#mask10_0_70)">
<path d="M63.5226 7.86956C63.5639 8.03366 63.6258 8.18847 63.7094 8.33605C63.7919 8.48261 63.8941 8.61575 64.0128 8.73547C64.1325 8.85519 64.2657 8.95633 64.4122 9.03889C64.5598 9.12249 64.7146 9.18442 64.8787 9.2257C64.7146 9.26698 64.5598 9.3289 64.4122 9.4125C64.2657 9.49507 64.1325 9.59621 64.0128 9.71593C63.8941 9.83565 63.7919 9.96879 63.7094 10.1153C63.6258 10.2619 63.5639 10.4177 63.5226 10.5818C63.4813 10.4177 63.4194 10.2619 63.3368 10.1153C63.2532 9.96879 63.1521 9.83565 63.0323 9.71593C62.9126 9.59621 62.7795 9.49507 62.6329 9.4125C62.4864 9.3289 62.3305 9.26698 62.1664 9.2257C62.3305 9.18442 62.4864 9.12249 62.6329 9.03889C62.7795 8.95633 62.9126 8.85519 63.0323 8.73547C63.1521 8.61575 63.2532 8.48261 63.3368 8.33605C63.4194 8.18847 63.4813 8.03366 63.5226 7.86956ZM63.5226 5.7373C63.5226 6.52374 63.4895 7.13266 63.4379 7.60432C63.4163 7.80041 63.3626 7.98825 63.2769 8.16576C63.1923 8.34431 63.0798 8.50325 62.9395 8.64258C62.8001 8.78191 62.6412 8.89544 62.4626 8.98007C62.2851 9.06573 62.0973 9.11939 61.9012 9.14107C61.4295 9.19267 60.8206 9.2257 60.0342 9.2257C60.8206 9.2257 61.4295 9.25872 61.9012 9.31136C62.0973 9.332 62.2851 9.38567 62.4626 9.47133C62.6412 9.55699 62.8001 9.66949 62.9395 9.80882C63.0798 9.94815 63.1923 10.1071 63.2769 10.2856C63.3626 10.4642 63.4163 10.651 63.4379 10.8471C63.4895 11.3187 63.5226 11.9277 63.5226 12.7141C63.5226 11.9277 63.5566 11.3187 63.6082 10.8471C63.6289 10.651 63.6825 10.4642 63.7682 10.2856C63.8539 10.1071 63.9664 9.94815 64.1057 9.80882C64.2461 9.66949 64.405 9.55699 64.5825 9.47133C64.7611 9.38567 64.9479 9.332 65.145 9.31136C65.6166 9.25872 66.2256 9.2257 67.011 9.2257C66.2256 9.2257 65.6166 9.19267 65.145 9.14107C64.9479 9.11939 64.7611 9.06573 64.5825 8.98007C64.405 8.89544 64.2461 8.78191 64.1057 8.64258C63.9664 8.50325 63.8539 8.34431 63.7682 8.16576C63.6825 7.98825 63.6289 7.80041 63.6082 7.60432C63.5566 7.13266 63.5226 6.52374 63.5226 5.7373Z" fill="#DB5300"/>
</g>
<path d="M9.52142 69.9471C9.43576 69.9161 9.25308 69.9017 8.97236 69.9017H6.6564C6.4634 69.9017 6.30756 69.8717 6.1899 69.8108C6.07431 69.751 6.01651 69.6375 6.01651 69.4723C6.01651 69.3598 6.04644 69.2659 6.10734 69.1916C6.2477 69.2277 6.37774 69.2453 6.49952 69.2453C6.62337 69.2453 6.71832 69.2329 6.78437 69.2081C6.85042 69.1813 6.90822 69.1338 6.95776 69.0678C7.0589 68.9305 7.11463 68.6993 7.12289 68.3742V62.6359C7.11154 62.3779 7.02588 62.2138 6.86694 62.1446C6.81946 62.123 6.75341 62.1023 6.66878 62.0827L6.40044 62.0249C6.2157 61.9816 6.10321 61.9279 6.06192 61.8639C6.02064 61.7979 6 61.7318 6 61.6658C6 61.5254 6.02993 61.4181 6.09082 61.3438C6.17545 61.3747 6.35916 61.3892 6.63988 61.3892H8.95585C9.14781 61.3892 9.30056 61.4201 9.41408 61.48C9.52968 61.5409 9.58747 61.6523 9.58747 61.8144C9.58747 61.9413 9.55961 62.0363 9.50491 62.0992C9.36454 62.0641 9.22934 62.0456 9.10033 62.0456C8.97339 62.0456 8.87431 62.06 8.8031 62.0868C8.73085 62.1147 8.6679 62.1611 8.6132 62.2272C8.49967 62.3676 8.44084 62.5987 8.43568 62.9208V68.6591C8.44084 68.8407 8.4749 68.9625 8.53889 69.0223C8.63178 69.108 8.7453 69.1658 8.87741 69.1957C9.01158 69.2236 9.12201 69.2473 9.20767 69.2659C9.2954 69.2855 9.36867 69.3103 9.42647 69.3402C9.54412 69.4011 9.60398 69.5012 9.60398 69.6416C9.60398 69.7799 9.57612 69.881 9.52142 69.9471ZM14.1203 62.0827C14.0316 62.0528 13.9345 62.0373 13.8272 62.0373C13.7199 62.0373 13.6342 62.0569 13.5713 62.0951C13.5073 62.1343 13.4392 62.188 13.3648 62.2561C13.2905 62.3252 13.209 62.4078 13.1213 62.5038L10.1902 65.5422C10.8672 65.7321 11.4535 66.1883 11.9488 66.9087C12.0892 67.113 12.2213 67.3153 12.3452 67.5155L12.6837 68.0894C13.049 68.723 13.3875 69.0306 13.6992 69.0141C13.8499 69.0141 13.9686 68.9965 14.0543 68.9604C14.142 68.9222 14.2039 68.9026 14.24 68.9026C14.2782 68.9026 14.3185 68.9315 14.3598 68.9893C14.4031 69.0471 14.4258 69.1132 14.4258 69.1875C14.4258 69.2597 14.3938 69.3464 14.3309 69.4476C14.2669 69.5497 14.1791 69.6416 14.0667 69.7241C13.8045 69.9141 13.5176 70.009 13.2038 70.009C12.8922 70.009 12.6434 69.9677 12.4566 69.8852C12.2688 69.8026 12.0985 69.6746 11.9447 69.5012C11.793 69.3278 11.6516 69.1317 11.5195 68.9109C11.3895 68.691 11.2656 68.4681 11.148 68.2421L10.8012 67.5692C10.3884 66.7879 9.93941 66.3204 9.45537 66.1656C9.38106 66.1439 9.31294 66.1367 9.25308 66.1449C9.19529 66.1532 9.12717 66.1635 9.0508 66.1738C9.00642 66.1604 8.97339 66.1078 8.95172 66.017C8.92901 65.9261 8.91869 65.8518 8.91869 65.794C8.91869 65.7362 8.94036 65.6888 8.98474 65.6495L11.8002 62.5286C11.891 62.4274 11.9365 62.3449 11.9365 62.2809C11.9365 62.1488 11.727 62.0559 11.309 62.0001C11.1273 61.9785 11.0169 61.9382 10.9787 61.8804C10.9395 61.8226 10.9209 61.7566 10.9209 61.6823C10.9209 61.5419 10.9508 61.4346 11.0117 61.3603C11.0778 61.3799 11.1397 61.3892 11.1975 61.3892H13.3607C13.7591 61.3892 14.0171 61.4428 14.1327 61.5502C14.1843 61.5976 14.2111 61.6565 14.2111 61.7277C14.2111 61.899 14.1802 62.0167 14.1203 62.0827Z" fill="#DB5300"/>
<path d="M18.4166 69.9471C18.3309 69.9161 18.1482 69.9017 17.8675 69.9017H15.5515C15.3586 69.9017 15.2048 69.8717 15.0892 69.8108C14.9757 69.751 14.9199 69.6375 14.9199 69.4723C14.9199 69.3547 14.9468 69.2608 15.0025 69.1916C15.1511 69.2277 15.2873 69.2453 15.4112 69.2453C15.535 69.2453 15.632 69.2329 15.7043 69.2081C15.7755 69.1813 15.8374 69.1338 15.8901 69.0678C16.0057 68.9274 16.0655 68.6962 16.0717 68.3742V62.6978C16.0717 62.4068 15.9902 62.2231 15.8281 62.1488C15.7755 62.124 15.7053 62.1023 15.6176 62.0827C15.5288 62.0641 15.4411 62.0445 15.3534 62.0249C15.2677 62.0032 15.1945 61.9785 15.1346 61.9506C15.0159 61.8907 14.9571 61.7896 14.9571 61.6492C14.9571 61.512 14.9839 61.4098 15.0396 61.3438C15.1243 61.3747 15.308 61.3892 15.5887 61.3892H17.851C18.043 61.3892 18.1978 61.4201 18.3134 61.48C18.431 61.5409 18.4909 61.6523 18.4909 61.8144C18.4909 61.9382 18.4599 62.0332 18.4001 62.0992C18.2597 62.0641 18.1049 62.0456 17.9377 62.0456C17.5796 62.0456 17.3948 62.3376 17.3845 62.9208V68.593C17.3845 68.8851 17.465 69.0698 17.6281 69.1462C17.6797 69.1689 17.7499 69.1895 17.8386 69.2081C17.9263 69.2277 18.0141 69.2473 18.1028 69.2659C18.1905 69.2855 18.2638 69.3103 18.3216 69.3402C18.4455 69.4042 18.5074 69.5043 18.5074 69.6416C18.5074 69.7716 18.4764 69.8728 18.4166 69.9471Z" fill="#DB5300"/>
<path d="M25.5668 69.947C25.4842 69.916 25.3005 69.9016 25.0177 69.9016H21.8431C21.6501 69.9016 21.4942 69.8716 21.3766 69.8108C21.261 69.7509 21.2032 69.6374 21.2032 69.4722C21.2032 69.3597 21.2331 69.2658 21.294 69.1915C21.4344 69.2276 21.5665 69.2452 21.6903 69.2452C21.8163 69.2452 21.9349 69.2328 22.0454 69.208C22.1579 69.1812 22.2642 69.1337 22.3632 69.0677C22.5996 68.917 22.7265 68.6858 22.743 68.3741V62.1982H22.0206C21.4839 62.1982 21.133 62.225 20.9679 62.2767C20.8028 62.3262 20.6789 62.3902 20.5963 62.4666C20.5138 62.544 20.4457 62.6482 20.3941 62.7803C20.3001 63.0115 20.2269 63.4078 20.1753 63.9692C20.0948 63.9889 20.0205 63.9981 19.9523 63.9981C19.8058 63.9981 19.7129 63.96 19.6716 63.8826C19.6303 63.8062 19.6014 63.7257 19.5849 63.6431C19.5705 63.5585 19.5612 63.4656 19.556 63.3665C19.5395 63.1663 19.5312 62.9527 19.5312 62.7266C19.5312 62.1074 19.5787 61.7152 19.6757 61.5501C19.7717 61.3715 19.9647 61.2817 20.2537 61.2817C20.3084 61.2817 20.3899 61.2879 20.4973 61.2983C20.6046 61.3096 20.7594 61.323 20.9638 61.3395C21.517 61.3726 22.1785 61.3891 22.9495 61.3891H23.8866C24.9599 61.3891 25.6783 61.3715 26.0415 61.3354C26.4048 61.3003 26.6298 61.2817 26.7186 61.2817C26.8063 61.2817 26.8878 61.2962 26.9621 61.323C27.0365 61.3478 27.0953 61.3849 27.1397 61.4345C27.2109 61.515 27.247 61.6161 27.247 61.74C27.247 61.9247 27.2408 62.0733 27.2305 62.1858C27.2191 62.2963 27.2067 62.4273 27.1933 62.578C27.1789 62.7297 27.1613 62.8866 27.1397 63.0486C27.087 63.4346 27.022 63.6988 26.9456 63.8413C26.8713 63.9465 26.7815 63.9981 26.6773 63.9981C26.572 63.9981 26.4791 63.9889 26.3966 63.9692L26.4007 63.6225C26.4007 63.2922 26.3811 63.0321 26.3429 62.8422C26.3068 62.6503 26.2294 62.5068 26.1117 62.4129C25.993 62.32 25.8227 62.2601 25.5998 62.2354C25.379 62.2106 25.0838 62.1982 24.7122 62.1982H24.0476V68.5929C24.0476 68.8571 24.2602 69.0419 24.6875 69.1461C24.7886 69.1688 24.8867 69.1895 24.9806 69.208C25.0766 69.2276 25.1684 69.2472 25.2572 69.2658C25.3449 69.2854 25.4192 69.3102 25.4801 69.3401C25.5978 69.401 25.6576 69.5011 25.6576 69.6415C25.6576 69.7715 25.6266 69.8727 25.5668 69.947Z" fill="#DB5300"/>
<path d="M33.4582 69.2452C33.612 69.273 33.7276 69.2865 33.805 69.2865C33.8845 69.2865 33.9619 69.2782 34.0362 69.2617C34.1125 69.2452 34.1817 69.2183 34.2426 69.1791C34.3747 69.0997 34.4407 68.9717 34.4407 68.7952C34.4407 68.6528 34.3964 68.4918 34.3086 68.3122L33.7843 67.02H30.2712L29.6478 68.597C29.59 68.7405 29.5611 68.8447 29.5611 68.9108C29.5611 68.9748 29.5704 69.0223 29.59 69.0553C29.6086 69.0862 29.6396 69.112 29.6808 69.1337C29.7242 69.1564 29.7779 69.175 29.8418 69.1915L30.0689 69.2534C30.3135 69.2927 30.4714 69.3298 30.5436 69.3649C30.6861 69.4341 30.7583 69.5373 30.7583 69.6745C30.7583 69.7736 30.7305 69.8593 30.6758 69.9305C30.6035 69.9109 30.5395 69.9016 30.4817 69.9016H28.2194C27.7261 69.9016 27.4805 69.7674 27.4805 69.497C27.4805 69.3711 27.5094 69.2689 27.5672 69.1915C27.7013 69.2276 27.8159 69.2452 27.9098 69.2452C28.0058 69.2452 28.0853 69.2318 28.1492 69.2039C28.2153 69.174 28.2783 69.1234 28.3392 69.0512C28.4382 68.9304 28.5538 68.6868 28.6859 68.3204L31.4312 61.6781C31.5076 61.4995 31.7285 61.3767 32.0918 61.3106C32.1908 61.2921 32.2961 61.2817 32.4096 61.2817C32.6346 61.2817 32.774 61.3437 32.8266 61.4675L33.3798 62.8546C34.45 65.3791 35.0682 66.8528 35.2334 67.276L35.7329 68.5847C35.834 68.8716 35.9187 69.047 35.9847 69.1131C36.0508 69.1791 36.122 69.2266 36.1994 69.2534C36.2789 69.2782 36.3604 69.2988 36.443 69.3154C36.5255 69.3319 36.5978 69.3546 36.6618 69.3814C36.8021 69.4423 36.8723 69.5383 36.8723 69.6704C36.8723 69.7695 36.8444 69.8541 36.7897 69.9222C36.7175 69.9057 36.6545 69.8974 36.5998 69.8974H33.9536C33.7637 69.8974 33.6151 69.8747 33.5078 69.8273C33.4025 69.7808 33.3509 69.7096 33.3509 69.6126C33.3509 69.4475 33.386 69.3257 33.4582 69.2452ZM33.4623 66.2315L32.0092 62.6317L30.5808 66.2315H33.4623Z" fill="#DB5300"/>
<path d="M41.1399 69.9555L39.2986 69.8977H37.8909C37.6979 69.8977 37.5369 69.8668 37.4079 69.8028C37.2779 69.7367 37.2139 69.6562 37.2139 69.5592C37.2139 69.3806 37.2407 69.2558 37.2964 69.1835C37.4223 69.2227 37.5565 69.2413 37.6969 69.2413C37.8372 69.2413 37.9528 69.232 38.0437 69.2124C38.1345 69.1938 38.215 69.1546 38.2872 69.0968C38.4493 68.9647 38.5308 68.7335 38.5308 68.4033V62.7434C38.5308 62.3997 38.3213 62.1851 37.9033 62.0994C37.636 62.0447 37.4636 61.9859 37.3873 61.9219C37.3129 61.8558 37.2758 61.7836 37.2758 61.7031C37.2758 61.5359 37.3057 61.4213 37.3666 61.3604C37.4327 61.3801 37.4946 61.3893 37.5524 61.3893C37.5524 61.3893 38.1025 61.3893 39.2037 61.3893C39.374 61.3893 39.6041 61.3801 39.8931 61.3604C40.1842 61.3419 40.5908 61.3315 41.111 61.3315C41.6311 61.3315 42.0976 61.3801 42.5104 61.476C42.9233 61.573 43.2628 61.7093 43.5301 61.8847C44.0389 62.2212 44.2939 62.6939 44.2939 63.3049C44.2939 64.0015 44.0018 64.564 43.4187 64.9933C43.2009 65.1533 42.9212 65.2895 42.5806 65.402C43.6726 65.4928 44.3744 65.9119 44.686 66.657C44.782 66.8996 44.8305 67.1875 44.8305 67.5198C44.8305 67.8501 44.7531 68.17 44.5994 68.4776C44.4476 68.7862 44.2196 69.0504 43.9141 69.2702C43.2752 69.7274 42.3505 69.9555 41.1399 69.9555ZM39.8271 65.1832L40.6651 65.1874C40.8302 65.1874 41.0284 65.1874 41.2596 65.1874C41.4908 65.1874 41.7178 65.1461 41.9407 65.0635C42.1637 64.9789 42.3494 64.8653 42.4981 64.725C42.8005 64.436 42.9522 64.0665 42.9522 63.6145C42.9522 63.1005 42.8252 62.7228 42.5724 62.4833C42.2772 62.1923 41.7653 62.0457 41.0367 62.0457C40.5413 62.0457 40.2327 62.0932 40.1119 62.1861C39.9901 62.2769 39.9117 62.3843 39.8766 62.5081C39.8436 62.6319 39.8271 62.795 39.8271 62.9952V65.1832ZM41.1646 65.9181C40.5588 65.9181 40.1129 65.9222 39.8271 65.9304V68.5643C39.8271 68.9389 40.0706 69.1484 40.5578 69.1918C40.7085 69.2031 40.919 69.2083 41.1894 69.2083C41.4619 69.2083 41.7446 69.1815 42.0398 69.1257C42.3371 69.0679 42.593 68.973 42.8077 68.8409C43.2556 68.5602 43.4806 68.1143 43.4806 67.5033C43.4806 66.4465 42.7086 65.9181 41.1646 65.9181Z" fill="#DB5300"/>
<path d="M53.7445 62.0373C53.4638 62.0373 53.3172 62.3304 53.3069 62.9166V66.2481C53.3069 67.4701 53.0056 68.4031 52.4028 69.0471C51.8104 69.6891 50.9641 70.009 49.8639 70.009C48.931 70.009 48.1652 69.7737 47.5686 69.3031C46.8142 68.7148 46.4375 67.7364 46.4375 66.3679V62.5492C46.4344 62.3903 46.4168 62.2788 46.3838 62.2148C46.3528 62.1519 46.2816 62.1095 46.1691 62.0868C46.0587 62.0652 45.9596 62.0445 45.8719 62.0249C45.7862 62.0032 45.713 61.9785 45.6531 61.9506C45.5344 61.8907 45.4756 61.7896 45.4756 61.6492C45.4756 61.5202 45.5055 61.4181 45.5664 61.3438C45.651 61.3747 45.8347 61.3892 46.1155 61.3892H48.2704C48.6915 61.3892 48.9021 61.5316 48.9021 61.8144C48.9021 61.9413 48.8742 62.0363 48.8195 62.0992C48.6812 62.0641 48.5522 62.0456 48.4314 62.0456C48.3127 62.0456 48.2168 62.06 48.1425 62.0868C48.0702 62.1147 48.0062 62.1632 47.9484 62.2313C47.8163 62.3913 47.7503 62.638 47.7503 62.9703V65.9798C47.7503 67.1254 47.9784 67.948 48.4356 68.4485C48.7906 68.8283 49.2829 69.0182 49.9135 69.0182C51.507 69.0182 52.3038 68.0264 52.3038 66.0417V62.6978C52.3038 62.4068 52.2212 62.2231 52.0561 62.1488C52.0065 62.124 51.9363 62.1023 51.8455 62.0827C51.7547 62.0641 51.6649 62.0445 51.5772 62.0249C51.4884 62.0032 51.4162 61.9785 51.3584 61.9506C51.2397 61.8907 51.1809 61.7896 51.1809 61.6492C51.1809 61.512 51.2098 61.4098 51.2676 61.3438C51.3522 61.3747 51.5369 61.3892 51.8207 61.3892H53.662C53.8519 61.3892 54.0046 61.4201 54.1202 61.48C54.2379 61.5378 54.2977 61.6482 54.2977 61.8102C54.2977 61.9372 54.2688 62.0321 54.211 62.0951C54.0645 62.0569 53.9097 62.0373 53.7445 62.0373Z" fill="#DB5300"/>
<path d="M55.3105 69.0844C55.3105 68.8181 55.3983 68.5973 55.5748 68.4239C55.7502 68.2484 55.968 68.1597 56.227 68.1597C56.6481 68.1597 56.9381 68.3444 57.0981 68.7129C57.1476 68.8284 57.1724 68.9523 57.1724 69.0844C57.1724 69.3435 57.0826 69.5633 56.9041 69.7449C56.7245 69.9204 56.4995 70.0091 56.227 70.0091C55.968 70.0091 55.7502 69.9204 55.5748 69.7449C55.3983 69.5695 55.3105 69.3486 55.3105 69.0844Z" fill="#DB5300"/>
<path d="M66.4975 62.0373C66.2167 62.0373 66.0702 62.3304 66.0599 62.9166V66.2481C66.0599 67.4701 65.7585 68.4031 65.1558 69.0471C64.5634 69.6891 63.7171 70.009 62.6169 70.009C61.6839 70.009 60.9181 69.7737 60.3216 69.3031C59.5671 68.7148 59.1904 67.7364 59.1904 66.3679V62.5492C59.1873 62.3903 59.1698 62.2788 59.1367 62.2148C59.1058 62.1519 59.0346 62.1095 58.9221 62.0868C58.8116 62.0652 58.7126 62.0445 58.6248 62.0249C58.5392 62.0032 58.4659 61.9785 58.406 61.9506C58.2873 61.8907 58.2285 61.7896 58.2285 61.6492C58.2285 61.5202 58.2584 61.4181 58.3193 61.3438C58.404 61.3747 58.5877 61.3892 58.8684 61.3892H61.0234C61.4444 61.3892 61.655 61.5316 61.655 61.8144C61.655 61.9413 61.6271 62.0363 61.5724 62.0992C61.4341 62.0641 61.3051 62.0456 61.1844 62.0456C61.0657 62.0456 60.9697 62.06 60.8954 62.0868C60.8231 62.1147 60.7591 62.1632 60.7014 62.2313C60.5692 62.3913 60.5032 62.638 60.5032 62.9703V65.9798C60.5032 67.1254 60.7313 67.948 61.1885 68.4485C61.5435 68.8283 62.0358 69.0182 62.6664 69.0182C64.2599 69.0182 65.0567 68.0264 65.0567 66.0417V62.6978C65.0567 62.4068 64.9741 62.2231 64.809 62.1488C64.7594 62.124 64.6893 62.1023 64.5984 62.0827C64.5076 62.0641 64.4178 62.0445 64.3301 62.0249C64.2413 62.0032 64.1691 61.9785 64.1113 61.9506C63.9926 61.8907 63.9338 61.7896 63.9338 61.6492C63.9338 61.512 63.9627 61.4098 64.0205 61.3438C64.1051 61.3747 64.2899 61.3892 64.5737 61.3892H66.4149C66.6048 61.3892 66.7575 61.4201 66.8731 61.48C66.9908 61.5378 67.0506 61.6482 67.0506 61.8102C67.0506 61.9372 67.0217 62.0321 66.9639 62.0951C66.8174 62.0569 66.6626 62.0373 66.4975 62.0373Z" fill="#DB5300"/>
<path d="M67.7491 69.1627C67.7491 69.1627 68.6944 67.8654 70.5852 65.2697C71.2674 64.3068 71.7287 63.6411 71.9682 63.2717L72.6576 62.1777L70.3458 62.2602C70.0836 62.2716 69.871 62.2912 69.7059 62.318C69.5428 62.3459 69.4169 62.4006 69.3261 62.4832C69.1661 62.6215 69.0639 62.9393 69.0206 63.4368C69.0206 63.5111 68.9339 63.5689 68.7605 63.6102C68.713 63.6215 68.6542 63.6267 68.583 63.6267C68.5138 63.6267 68.4602 63.5937 68.422 63.5276C68.3828 63.4595 68.3477 63.3666 68.3146 63.251C68.2837 63.1354 68.2589 63.0147 68.2403 62.8877C68.2042 62.638 68.1867 62.4202 68.1867 62.2355C68.1867 62.0517 68.1929 61.9052 68.2073 61.7979C68.2238 61.6885 68.2527 61.6028 68.294 61.5419C68.3621 61.4408 68.5128 61.3892 68.744 61.3892H73.8176C73.9549 61.3892 74.0984 61.4748 74.247 61.6451C74.3894 61.8102 74.4389 61.9413 74.3956 62.0373L69.4417 69.0925L72.3191 68.9811C72.8227 68.9594 73.1654 68.8407 73.347 68.626C73.5008 68.4392 73.603 68.0759 73.6525 67.5362C73.6546 67.498 73.6938 67.4619 73.7681 67.4288C73.8445 67.3958 73.9332 67.3793 74.0323 67.3793C74.1314 67.3793 74.1995 67.4154 74.2387 67.4866C74.2769 67.5558 74.311 67.6579 74.3419 67.7921C74.3749 67.9242 74.4018 68.0636 74.4245 68.2091C74.4678 68.4981 74.4905 68.7478 74.4905 68.9563C74.4905 69.1658 74.4616 69.3309 74.4038 69.4517C74.3481 69.5735 74.2655 69.6684 74.1561 69.7365C73.9714 69.847 73.6484 69.9017 73.186 69.9017H68.2816C68.133 69.9017 67.9926 69.7985 67.8605 69.592C67.7253 69.3918 67.6882 69.2484 67.7491 69.1627Z" fill="#DB5300"/>
<path d="M25.7015 75.6856C25.943 75.6856 26.1525 75.7269 26.329 75.8094C26.5076 75.8899 26.6551 75.9973 26.7707 76.1314C26.8863 76.2635 26.973 76.4163 27.0308 76.5897C27.0907 76.7631 27.1216 76.9395 27.1216 77.1181C27.1216 77.3028 27.0907 77.4834 27.0308 77.6589C26.973 77.8354 26.8843 77.9953 26.7666 78.1378C26.6479 78.2781 26.5003 78.3917 26.3249 78.4763C26.1515 78.5589 25.9502 78.6001 25.7222 78.6001C25.5508 78.6001 25.397 78.565 25.2598 78.4969C25.1215 78.4288 25.0121 78.3442 24.9295 78.2451V78.5547H24.2731V78.4887C24.3031 78.4887 24.332 78.4753 24.3598 78.4474C24.3867 78.4206 24.4104 78.3886 24.43 78.3524C24.4486 78.3174 24.463 78.2781 24.4713 78.2369C24.4816 78.1935 24.4878 78.1533 24.4878 78.1171V74.6907C24.4878 74.6164 24.4764 74.5462 24.4548 74.4801C24.4321 74.412 24.3681 74.3749 24.2607 74.3687V74.3026L24.9295 74.0962V76.0158C25.0338 75.9147 25.1566 75.8342 25.2969 75.7764C25.4373 75.7165 25.5715 75.6856 25.7015 75.6856ZM25.7717 78.3731C25.9306 78.3648 26.0689 78.3266 26.1845 78.2575C26.3022 78.1863 26.4002 78.0965 26.4776 77.9892C26.5571 77.8818 26.6149 77.7611 26.651 77.6259C26.6892 77.4886 26.7088 77.3482 26.7088 77.2048C26.7088 77.0427 26.6861 76.8859 26.6428 76.7342C26.5984 76.5835 26.5323 76.4472 26.4446 76.3255C26.3558 76.2047 26.2475 76.1067 26.1185 76.0324C25.9884 75.958 25.8419 75.9209 25.6767 75.9209C25.5828 75.9209 25.491 75.9436 25.4001 75.9869C25.3114 76.0282 25.2319 76.085 25.1607 76.1562C25.0916 76.2253 25.0348 76.3079 24.9914 76.4039C24.9502 76.5009 24.9295 76.6021 24.9295 76.7094V77.5392C24.9295 77.6713 24.9543 77.7889 25.0038 77.8901C25.0534 77.9923 25.1174 78.0789 25.1979 78.1502C25.2804 78.2224 25.3712 78.2771 25.4703 78.3153C25.5715 78.3545 25.6726 78.3731 25.7717 78.3731Z" fill="#DB5300"/>
<path d="M28.7949 79.5169C28.731 79.7037 28.6515 79.8306 28.5555 79.8967C28.4585 79.9648 28.3584 79.9999 28.2541 79.9999C28.1881 79.9999 28.1282 79.9895 28.0766 79.971C28.0271 79.9544 27.9827 79.9338 27.9445 79.909C27.9053 79.8843 27.8754 79.8605 27.8537 79.8389C27.831 79.8162 27.8176 79.7986 27.8124 79.7852L28.0353 79.2403C28.057 79.3197 28.0787 79.3806 28.1014 79.4219C28.1231 79.4652 28.153 79.5055 28.1922 79.5416C28.2335 79.5767 28.2841 79.5953 28.345 79.5953C28.4523 79.5953 28.5359 79.5169 28.5968 79.36L28.9271 78.5343L27.8454 76.0904C27.8227 76.0357 27.7856 75.9738 27.734 75.9046C27.6844 75.8365 27.6143 75.8014 27.5234 75.8014V75.7354H28.411V75.8014C28.3914 75.8014 28.3677 75.8179 28.3408 75.8509C28.3161 75.8819 28.3037 75.9211 28.3037 75.9707C28.3037 76.0099 28.3119 76.045 28.3285 76.078L29.1541 77.977L29.9467 76.0367C29.9602 76.0037 29.9674 75.9748 29.9674 75.95C29.9674 75.9036 29.9519 75.8675 29.922 75.8427C29.8941 75.8159 29.8652 75.8014 29.8353 75.8014V75.7354H30.4875V75.8014C30.4153 75.8014 30.3534 75.8324 30.3018 75.8922C30.2491 75.9531 30.2078 76.0223 30.1779 76.0986L28.7949 79.5169Z" fill="#DB5300"/>
<path d="M35.0123 74.2946C34.682 74.2946 34.394 74.3555 34.1494 74.4763C33.9038 74.5949 33.7005 74.7487 33.5385 74.9386C33.3785 75.1285 33.2588 75.3422 33.1793 75.5785C33.1019 75.8159 33.0637 76.0512 33.0637 76.2844C33.0637 76.5487 33.1143 76.8077 33.2165 77.0606C33.3207 77.3144 33.4642 77.5384 33.6458 77.7335C33.8274 77.9265 34.038 78.0833 34.2774 78.2041C34.5189 78.3228 34.7821 78.3816 35.0659 78.3816C35.1454 78.3816 35.2403 78.3734 35.3508 78.3568C35.4602 78.3383 35.5696 78.3021 35.6769 78.2495C35.7842 78.1979 35.8833 78.1246 35.9741 78.0307C36.067 77.9378 36.1393 77.815 36.1888 77.6633H36.2549V78.4064C36.1888 78.4064 36.1186 78.4167 36.0443 78.4353C35.97 78.4518 35.8874 78.4714 35.7966 78.4931C35.681 78.5261 35.551 78.555 35.4086 78.5798C35.2682 78.6066 35.1206 78.621 34.9668 78.621C34.5757 78.621 34.232 78.555 33.9348 78.4229C33.6396 78.2887 33.394 78.1133 33.1958 77.8986C32.9997 77.6819 32.8532 77.4383 32.7541 77.1679C32.655 76.8985 32.6055 76.625 32.6055 76.3464C32.6055 76.0687 32.655 75.7932 32.7541 75.5207C32.8532 75.2462 33.0028 75.0006 33.2041 74.7859C33.4043 74.5691 33.6582 74.3927 33.9637 74.2575C34.2692 74.1233 34.6263 74.0552 35.037 74.0552C35.1856 74.0552 35.3188 74.0696 35.4375 74.0965C35.5551 74.1212 35.6625 74.1481 35.7595 74.1749C35.8255 74.1976 35.8854 74.2141 35.9411 74.2244C35.9989 74.2358 36.0536 74.2409 36.1062 74.2409V74.9882H36.0402C36.0123 74.8509 35.9628 74.7363 35.8916 74.6455C35.8193 74.5526 35.7357 74.4804 35.6398 74.4308C35.5427 74.3813 35.4395 74.3473 35.3301 74.3276C35.2197 74.306 35.1134 74.2946 35.0123 74.2946Z" fill="#DB5300"/>
<path d="M38.2439 78.6006C38.0209 78.6006 37.8186 78.5645 37.637 78.4933C37.4574 78.419 37.3047 78.3188 37.1788 78.1919C37.0518 78.0629 36.9527 77.9112 36.8815 77.7378C36.8124 77.5623 36.7783 77.3704 36.7783 77.164C36.7783 76.9441 36.8165 76.7449 36.8939 76.5654C36.9703 76.3837 37.0756 76.2289 37.2077 76.0989C37.3418 75.9668 37.5018 75.8656 37.6865 75.7934C37.8702 75.7222 38.0705 75.686 38.2851 75.686C38.4998 75.686 38.6959 75.7222 38.8755 75.7934C39.054 75.8625 39.2078 75.9606 39.3379 76.0865C39.4669 76.2103 39.567 76.3589 39.6392 76.5323C39.7104 76.7037 39.7466 76.8915 39.7466 77.0979C39.7466 77.2909 39.7135 77.4777 39.6475 77.6594C39.5835 77.841 39.4875 78.002 39.3585 78.1424C39.2315 78.2807 39.0747 78.3921 38.8879 78.4767C38.7031 78.5593 38.4885 78.6006 38.2439 78.6006ZM38.2026 75.909C38.0426 75.9172 37.9012 75.9575 37.7774 76.0287C37.6535 76.0978 37.5503 76.1876 37.4677 76.297C37.3852 76.4044 37.3212 76.5282 37.2778 76.6686C37.2366 76.8069 37.2159 76.9472 37.2159 77.0896C37.2159 77.2579 37.2407 77.4189 37.2902 77.5727C37.3418 77.7275 37.4161 77.8647 37.5132 77.9855C37.6091 78.1073 37.7247 78.2033 37.8599 78.2745C37.9941 78.3467 38.1448 78.3818 38.3099 78.3818C38.475 78.3818 38.6206 78.3467 38.7475 78.2745C38.8765 78.2033 38.9839 78.1114 39.0695 77.9979C39.1541 77.8823 39.2181 77.7533 39.2594 77.6098C39.3028 77.4674 39.3255 77.3229 39.3255 77.1763C39.3255 77.0308 39.3017 76.8832 39.2553 76.7346C39.2109 76.5839 39.1418 76.4456 39.0489 76.3218C38.955 76.1979 38.8363 76.0989 38.6938 76.0246C38.5535 75.9482 38.3894 75.909 38.2026 75.909Z" fill="#DB5300"/>
<path d="M42.4831 78.5551V78.2579C42.4057 78.3436 42.3025 78.422 42.1735 78.4932C42.0466 78.5644 41.8866 78.6005 41.6946 78.6005C41.4573 78.6005 41.2498 78.5593 41.0713 78.4767C40.8948 78.3941 40.7493 78.2868 40.6337 78.1547C40.5181 78.0205 40.4314 77.8657 40.3736 77.6923C40.3178 77.5189 40.291 77.3414 40.291 77.1598C40.291 76.9812 40.3199 76.8037 40.3777 76.6272C40.4376 76.4487 40.5263 76.2908 40.6419 76.1525C40.7575 76.0121 40.902 75.8996 41.0754 75.814C41.2508 75.7293 41.4531 75.686 41.6822 75.686C41.8329 75.686 41.9836 75.7149 42.1322 75.7727C42.2808 75.8284 42.3975 75.8996 42.4831 75.9873V74.6787C42.4831 74.6044 42.4707 74.5342 42.446 74.4681C42.4233 74.4 42.3593 74.3629 42.2519 74.3567V74.2906L42.9249 74.0801V78.1175C42.9249 78.1537 42.929 78.1939 42.9372 78.2373C42.9455 78.2785 42.9589 78.3178 42.9785 78.3528C42.9971 78.389 43.0198 78.421 43.0446 78.4478C43.0714 78.4757 43.1034 78.4891 43.1395 78.4891V78.5551H42.4831ZM41.7442 78.3817C41.8371 78.3817 41.9279 78.3632 42.0166 78.3239C42.1075 78.2858 42.1859 78.2352 42.2519 78.1712C42.3201 78.1051 42.3758 78.0288 42.4171 77.94C42.4604 77.8523 42.4831 77.7573 42.4831 77.6552V76.7346C42.4831 76.6107 42.4553 76.4982 42.4006 76.396C42.3479 76.2949 42.2808 76.2082 42.1983 76.136C42.1178 76.0647 42.0301 76.0111 41.9341 75.975C41.8371 75.9368 41.7442 75.9172 41.6533 75.9172C41.5068 75.9172 41.3747 75.9523 41.257 76.0204C41.1414 76.0895 41.0434 76.1793 40.9639 76.2887C40.8834 76.3991 40.8236 76.523 40.7823 76.6603C40.741 76.7955 40.7204 76.9307 40.7204 77.0648C40.7204 77.2217 40.742 77.3775 40.7864 77.5313C40.8329 77.6861 40.8989 77.8244 40.9846 77.9483C41.0723 78.0701 41.1786 78.1712 41.3024 78.2538C41.4284 78.3343 41.5759 78.3766 41.7442 78.3817Z" fill="#DB5300"/>
<path d="M44.1615 77.197C44.1781 77.3539 44.2152 77.5045 44.273 77.647C44.3329 77.7873 44.4103 77.9112 44.5042 78.0185C44.6002 78.1258 44.7168 78.2125 44.8551 78.2786C44.9955 78.3426 45.1575 78.3735 45.3422 78.3735C45.4413 78.3735 45.5455 78.3601 45.656 78.3323C45.7654 78.3023 45.8676 78.261 45.9615 78.2084C46.0544 78.1537 46.139 78.0877 46.2133 78.0103C46.2876 77.9308 46.3371 77.841 46.3619 77.7419H46.4238V78.2456C46.396 78.2456 46.366 78.2559 46.333 78.2745C46.3 78.291 46.2608 78.3137 46.2174 78.3405C46.1266 78.3932 46.0038 78.4499 45.85 78.5098C45.6983 78.5696 45.497 78.6006 45.2473 78.6006C45.046 78.6006 44.8551 78.5717 44.6734 78.5139C44.4918 78.4561 44.3308 78.3674 44.1904 78.2456C44.0521 78.1248 43.9427 77.971 43.8602 77.7832C43.7776 77.5964 43.7363 77.3724 43.7363 77.1103C43.7363 76.9452 43.7632 76.778 43.8189 76.6066C43.8767 76.4363 43.9613 76.2836 44.0748 76.1484C44.1904 76.0111 44.337 75.8997 44.5166 75.814C44.6951 75.7294 44.9098 75.686 45.1606 75.686C45.3835 75.686 45.5786 75.7253 45.7468 75.8016C45.914 75.879 46.0533 75.9853 46.1638 76.1195C46.2732 76.2516 46.3547 76.4105 46.4073 76.5943C46.462 76.779 46.4899 76.9802 46.4899 77.197H44.1615ZM45.1358 75.909C44.9789 75.909 44.8427 75.941 44.7271 76.0039C44.6136 76.0679 44.5166 76.1484 44.434 76.2475C44.3535 76.3445 44.2916 76.456 44.2482 76.5819C44.2039 76.7057 44.175 76.8316 44.1615 76.9575H46.0729C46.0698 76.8285 46.0461 76.7006 46.0028 76.5736C45.9615 76.4477 45.9016 76.3362 45.8252 76.2392C45.7509 76.1401 45.6539 76.0607 45.5363 75.9998C45.4207 75.9399 45.2865 75.909 45.1358 75.909Z" fill="#DB5300"/>
<path d="M46.7334 79.7894V79.5747H49.5737V79.7894H46.7334Z" fill="#DB5300"/>
<path d="M49.8955 74.1211H50.8491V74.1871H50.8161C50.78 74.1871 50.748 74.1995 50.7212 74.2243C50.6964 74.2491 50.6727 74.28 50.651 74.3151C50.6314 74.3512 50.6159 74.3894 50.6056 74.4307C50.5973 74.472 50.5932 74.5081 50.5932 74.538V77.1925C50.5932 77.3659 50.6107 77.5269 50.6469 77.6755C50.6819 77.8242 50.7428 77.9521 50.8285 78.0595C50.9131 78.1668 51.0246 78.2514 51.1629 78.3113C51.3032 78.3722 51.4735 78.4021 51.6748 78.4021C51.8998 78.4021 52.0794 78.367 52.2115 78.2948C52.3456 78.2236 52.4488 78.1317 52.5211 78.0182C52.5923 77.9026 52.6387 77.7736 52.6615 77.6301C52.6862 77.4846 52.6986 77.3432 52.6986 77.2049V74.538C52.6986 74.5081 52.6924 74.472 52.6821 74.4307C52.6738 74.3894 52.6594 74.3512 52.6408 74.3151C52.6212 74.28 52.5975 74.2491 52.5706 74.2243C52.5428 74.1995 52.5139 74.1871 52.4839 74.1871H52.4468V74.1211H53.1816V74.1871H53.1486C53.1125 74.1871 53.0825 74.1995 53.0578 74.2243C53.033 74.2491 53.0093 74.28 52.9876 74.3151C52.968 74.3512 52.9546 74.3894 52.9463 74.4307C52.938 74.472 52.9339 74.5081 52.9339 74.538V77.1843C52.9339 77.4763 52.8978 77.7158 52.8266 77.9026C52.7543 78.0873 52.6553 78.2329 52.5293 78.3402C52.4024 78.4475 52.2548 78.5208 52.0876 78.559C51.9194 78.6003 51.7419 78.6209 51.5551 78.6209C51.3538 78.6209 51.167 78.5982 50.9936 78.5549C50.8223 78.5136 50.6737 78.4393 50.5478 78.3319C50.4208 78.2246 50.3218 78.0791 50.2505 77.8943C50.1783 77.7075 50.1432 77.4733 50.1432 77.1925V74.538C50.1432 74.5081 50.1391 74.472 50.1308 74.4307C50.1226 74.3894 50.1071 74.3512 50.0854 74.3151C50.0658 74.28 50.0421 74.2491 50.0152 74.2243C49.9905 74.1995 49.9616 74.1871 49.9285 74.1871H49.8955V74.1211Z" fill="#DB5300"/>
<path d="M53.6035 78.555L55.4447 75.9707H54.3425C54.2651 75.9707 54.1949 75.9861 54.1319 76.0161C54.071 76.047 54.0184 76.0863 53.9751 76.1358C53.9338 76.1853 53.9018 76.239 53.8801 76.2968C53.8574 76.3525 53.8471 76.4041 53.8471 76.4537H53.7769V75.7354H56.1507L54.3095 78.3114H55.5603C55.6563 78.3114 55.7378 78.2969 55.8039 78.266C55.872 78.2361 55.9277 78.1979 55.969 78.1504C56.0124 78.1009 56.0433 78.0472 56.0598 77.9894C56.0784 77.9316 56.0887 77.8779 56.0887 77.8284H56.1507V78.555H53.6035Z" fill="#DB5300"/>
</svg>
