<svg width="32" height="32" viewBox="0 0 32 32" fill="none" xmlns="http://www.w3.org/2000/svg">
<path d="M16 28C17.455 28 18.708 27.131 19.2577 25.8906H12.7422C13.292 27.131 14.545 28 16 28Z" fill="#8A8F9D"/>
<path d="M23.3478 15.6185V14.0781C23.3478 10.8052 21.1476 8.0312 18.133 7.12516V6.10938C18.133 4.94627 17.176 4 15.9997 4C14.8234 4 13.8664 4.94627 13.8664 6.10938V7.12516C10.8517 8.0312 8.65157 10.8052 8.65157 14.0781V15.6185C8.65157 18.4935 7.54328 21.2195 5.53089 23.2946C5.33368 23.4979 5.27826 23.798 5.39005 24.0571C5.50183 24.3162 5.75925 24.4844 6.04417 24.4844H25.9552C26.2401 24.4844 26.4975 24.3162 26.6093 24.0571C26.7211 23.798 26.6657 23.4979 26.4685 23.2946C24.4561 21.2195 23.3478 18.4934 23.3478 15.6185ZM16.7108 6.84663C16.4768 6.82431 16.2396 6.8125 15.9997 6.8125C15.7598 6.8125 15.5226 6.82431 15.2886 6.84663V6.10938C15.2886 5.72167 15.6076 5.40625 15.9997 5.40625C16.3918 5.40625 16.7108 5.72167 16.7108 6.10938V6.84663Z" fill="#8A8F9D"/>
</svg>
